# xmcd CD database file
#
# Track frame offsets:
#	150
#	13977
#	28903
#	39934
#	58261
#	73705
#	87747
#	112263
#	133354
#	149863
#	165301
#
# Disc length: 2380 seconds
#
# Revision: 0
# Processed by: cddbd v1.5.1PL0 Copyright (c) Steve Scherf et al.
# Submitted via: CDex 1.51
#
DISCID=b1094a0b
DTITLE=Louis Armstrong - Best of the Best
DYEAR=2003
DGENRE=Jazz
TTITLE0=A kiss To Build A Dream On
TTITLE1=Blueberry Hill
TTITLE2=Hello Dolly
TTITLE3=When You're Smilling
TTITLE4=La Vie En Rose
TTITLE5=That Lucky Old Sun
TTITLE6=Way Down Yonder In New Orleans
TTITLE7=Jeepers Creepers
TTITLE8=Someday
TTITLE9=Mack The Knife
TTITLE10=Moon River
EXTD=YEAR: 2003
EXTT0=
EXTT1=
EXTT2=
EXTT3=
EXTT4=
EXTT5=
EXTT6=
EXTT7=
EXTT8=
EXTT9=
EXTT10=
PLAYORDER=
